<svg xmlns="http://www.w3.org/2000/svg" xmlns:xlink="http://www.w3.org/1999/xlink" version="1.1" id="Layer_1" x="0px" y="0px" width="100.001px" height="64.709px" viewBox="0 0 100.001 64.709" enable-background="new 0 0 100.001 64.709" xml:space="preserve">
<g>
	<path d="M33.881,30.267c-9.948-4.121-18.685-4.492-26.707-1.159L6.68,27.891c8.359-3.463,17.436-3.079,27.709,1.166L33.881,30.267z   "/>
</g>
<g>
	<path d="M34.389,37.013c-10.261-4.239-19.35-4.623-27.709-1.166l0.495,1.211c8.047-3.32,16.771-2.942,26.707,1.166L34.389,37.013z"/>
</g>
<g>
	<path d="M34.389,21.1c-10.261-4.238-19.35-4.623-27.709-1.172l0.495,1.218c8.047-3.327,16.771-2.95,26.707,1.166L34.389,21.1z"/>
</g>
<path d="M78.648,36.798v22.006C60.184,47.11,44.22,57.82,44.22,59.649V20.684c0-6.921,9.154-10.658,20.431-10.658  c3.112,0,6.028,0.469,8.659,1.23l3.802-3.802c-18.894-5.782-33.399,2.76-35.392,4.603C38.868,9.296,22.461-0.268,0,9.485  c0,0.15,0,2.845,0,6.966v46.532h34.128c1.172,1.009,3.945,1.726,7.188,1.726c3.242,0,6.016-0.717,7.201-1.726h34.116V32.807  L78.648,36.798z M38.673,59.649c0-1.829-15.977-12.539-34.415-0.846V13.431c3.646-2.109,8.568-3.405,13.985-3.405  c11.276,0,20.43,3.737,20.43,10.658V59.649z"/>
<path d="M46.811,29.056l0.495,1.211c3.919-1.627,7.956-2.506,11.927-2.975l0.573-1.38C55.483,26.348,51.082,27.292,46.811,29.056z"/>
<path d="M46.811,37.013l0.495,1.211c2.799-1.152,5.651-1.947,8.516-2.514l0.56-1.394C53.179,34.896,49.949,35.717,46.811,37.013z"/>
<path d="M46.811,21.1l0.495,1.211c6.016-2.487,12.292-3.47,18.177-3.223l1.237-1.237C60.314,17.396,53.4,18.373,46.811,21.1z"/>
<path d="M99.417,8.118l-7.526-7.526c-1.028-1.042-3.099-0.67-4.583,0.82l-24.22,24.226l-2.553,6.23  c-0.572,1.413-1.38,3.438-2.083,5.15c-0.195,0.476-0.417,1.022-0.586,1.406l-1.185,2.949c-0.742,1.811,0.143,2.683,1.939,1.96  l2.956-1.211c0.378-0.156,0.938-0.378,1.406-0.573c1.719-0.689,3.725-1.517,5.156-2.083l6.225-2.546l24.232-24.226  C100.081,11.21,100.446,9.153,99.417,8.118z M67.385,37.579l-3.919,1.595l-2.631-2.637l0.781-1.928l0.808-1.972l1.38-3.412  l6.967,6.973L67.385,37.579z"/>
</svg>