<svg xmlns="http://www.w3.org/2000/svg" xmlns:xlink="http://www.w3.org/1999/xlink" version="1.2" baseProfile="tiny" id="Layer_1" x="0px" y="0px" width="100px" height="100px" viewBox="0 0 100 100" xml:space="preserve">
<path fill="#000000" d="M63.64,70.629h0.817v-3.765h0.096c0.465-0.001,0.465-1.687,0.001-1.687h-0.097v-6.156h0.096  c0.465,0,0.465-1.684,0.001-1.684h-0.097v-2.645h-0.818c-0.004-0.766-0.48-1.417-1.155-1.676  c-5.965-2.281-10.202-8.059-10.202-14.824c0-2.32,0.991-6.902,1.608-10.593c0.67-2.515,2.377-13.178,0.882-18.662  C53.414,3.961,49.383,0,49.383,0s-4.031,3.961-5.388,8.939c-1.495,5.483,0.5,16.145,1.17,18.661  c0.615,3.691,1.608,8.273,1.608,10.593c0,6.766-4.235,12.543-10.201,14.824c-0.672,0.259-1.15,0.91-1.155,1.676h-0.818v2.645h-0.101  c-0.469,0-0.469,1.684-0.001,1.684h0.101v6.156h-0.101c-0.467,0-0.467,1.686,0,1.686h0.101v3.766h0.816l-0.001,0.024h0.019  c0.043,3.189-0.079,7.839-0.475,14.565c-0.397,6.752-0.819,11.379-1.229,14.504l-0.002,0.04c1.727,0.165,4.086,0.247,6.864,0.235  l10.054-0.366c5.947-0.385,11.146-1.005,14.37-1.66L63.64,70.629z M51.457,9.505c0,1.067-0.867,1.932-1.934,1.932  c-1.065,0-1.932-0.864-1.932-1.932c0-1.066,0.865-1.929,1.932-1.929C50.59,7.576,51.457,8.439,51.457,9.505z M36.473,54.35  c0.101-0.714,1.098-1.154,2.198-1.58c0.147-0.057,0.272-0.104,0.36-0.144c5.113-2.266,8.548-8.066,8.548-14.433  c0-1.424-0.445-3.849-0.916-6.417c-0.272-1.483-0.554-3.016-0.75-4.383c-0.803-3.5-2.525-12.163-1.292-17.408  c1.184-5.032,4.335-8.421,4.469-8.563c0.163-0.172,0.434-0.181,0.606-0.019c0.173,0.163,0.181,0.434,0.019,0.606  c-0.031,0.033-3.129,3.372-4.258,8.172c-1.194,5.079,0.508,13.606,1.296,17.037l0.007,0.035c0.195,1.355,0.476,2.887,0.748,4.369  c0.479,2.607,0.93,5.07,0.93,6.572c0,6.701-3.64,12.816-9.058,15.217c-0.097,0.043-0.236,0.098-0.399,0.16  c-1.045,0.404-1.603,0.707-1.658,0.902c-0.03,0.215-0.214,0.367-0.424,0.367c-0.02,0-0.041-0.001-0.061-0.004  C36.603,54.803,36.44,54.584,36.473,54.35z M36.377,59.357h26.3c0.236,0,0.429,0.192,0.429,0.43c0,0.236-0.192,0.429-0.429,0.429  h-26.3c-0.237,0-0.429-0.192-0.429-0.429C35.948,59.55,36.14,59.357,36.377,59.357z M36.377,66.504h26.3  c0.236,0,0.429,0.193,0.429,0.43s-0.192,0.43-0.429,0.43h-26.3c-0.237,0-0.429-0.193-0.429-0.43S36.14,66.504,36.377,66.504z   M36.384,85.219c0.396-6.734,0.52-11.398,0.476-14.59h0.65l0.422,9.865l0.422-9.865h1.681l0.368,7.736l0.368-7.736H43.9l0.368,7.736  l0.368-7.736h1.838l0.7,13.451l0.699-13.451h1.674l0.567,11.922l0.567-11.922h4.042l0.398,8.365l0.397-8.365h2.665l0.398,8.365  l0.397-8.365h1.389l0.398,8.365l0.397-8.365h1.005l1.1,23.21c-0.361,0.626-1.016,1.265-2.184,1.204  c-2.246-0.115-1.812-1.59-3.337-1.59s-0.954,2.099-3.146,2.48c-2.193,0.381-1.907-2.48-3.624-3.91  c-1.716-1.431-2.575,1.43-4.1,2.994s-2.002,1.773-4.291,1.201s-2.956-1.43-5.34-1.145c-0.967,0.116-1.465,0.694-1.715,1.34  C35.821,93.566,36.108,89.908,36.384,85.219z"/>
</svg>