<svg xmlns:dc="http://purl.org/dc/elements/1.1/" xmlns:cc="http://creativecommons.org/ns#" xmlns:rdf="http://www.w3.org/1999/02/22-rdf-syntax-ns#" xmlns:svg="http://www.w3.org/2000/svg" xmlns="http://www.w3.org/2000/svg" version="1.1" width="100" height="100" viewBox="0 0 106.254 101.667" id="Layer_1" xml:space="preserve"><defs id="defs9"/><path d="M 0.04748314,-2.3032033 L 9.7134907,-2.3032033 L 9.7134907,17.069742 L 19.379498,17.069742 L 19.379498,7.3865462 L 69.167955,8.286877 L 69.167955,20.879016 L 55.927423,20.879016 L 55.927423,33.739073 L 69.167955,33.739073 L 69.167955,46.331212 L 82.132643,46.331212 L 82.132643,33.739073 L 95.09733,33.739073 L 95.09733,20.879016 L 82.132643,20.879016 L 82.132643,8.286877 L 69.167955,8.286877 L 19.379498,7.3832692 L 9.7134907,7.3832692 L 9.7134907,-2.3032033 L 106.37356,-2.3032033 L 106.37356,104.248 L 87.041553,104.248 L 87.041553,55.815633 L 29.045506,55.815633 L 29.045506,94.561523 L 38.711513,94.561523 L 38.711513,65.502106 L 58.04353,65.502106 L 58.04353,94.561523 L 87.041553,94.561523 L 87.041553,104.248 L 19.379498,104.248 L 0.04748314,84.875051 z" id="path3815" style="fill:#000000;stroke:none"/><metadata id="metadata3035"><rdf:RDF><cc:Work rdf:about=""><dc:title/></cc:Work></rdf:RDF></metadata></svg>