<svg xmlns="http://www.w3.org/2000/svg" xmlns:xlink="http://www.w3.org/1999/xlink" version="1.1" id="Layer_1" x="0px" y="0px" width="100px" height="100px" viewBox="0 0 100 100" enable-background="new 0 0 100 100" xml:space="preserve">
<g>
	<path fill="#000000" d="M30.923,57.916c0,2.209,1.791,4,4,4s4-1.791,4-4c0-8.869,7.215-16.084,16.083-16.084h18.502l-11.32,11.321   c-1.562,1.561-1.562,4.093,0,5.655c0.781,0.781,1.805,1.172,2.828,1.172s2.047-0.391,2.828-1.172l18.145-18.144   c0.189-0.188,0.357-0.396,0.506-0.618c0.053-0.079,0.087-0.165,0.133-0.246c0.084-0.145,0.17-0.288,0.234-0.443   c0.045-0.109,0.068-0.223,0.104-0.335c0.043-0.137,0.094-0.27,0.122-0.412c0.039-0.197,0.052-0.397,0.061-0.598   c0.003-0.061,0.019-0.119,0.019-0.181c0-0.056-0.015-0.107-0.017-0.162c-0.009-0.207-0.022-0.414-0.062-0.618   c-0.026-0.135-0.075-0.261-0.116-0.39c-0.036-0.12-0.062-0.241-0.11-0.358c-0.06-0.144-0.141-0.275-0.216-0.41   c-0.052-0.093-0.092-0.19-0.152-0.279c-0.146-0.22-0.312-0.425-0.498-0.611c-0.001,0-0.001,0-0.001,0L67.845,16.854   c-1.562-1.562-4.095-1.562-5.657,0c-1.562,1.562-1.562,4.095,0,5.657l11.32,11.321H55.006   C41.727,33.832,30.923,44.636,30.923,57.916z"/>
	<path fill="#000000" d="M83.166,59.333c-2.209,0-4,1.791-4,4v9.334v2.969v2.489h-58V24h3.335H27.5h18.834c2.209,0,4-1.791,4-4   s-1.791-4-4-4H27.168h-2.667h-3.335c-4.418,0-8,3.582-8,8v54.125c0,4.418,3.582,8,8,8h58c4.418,0,8-3.582,8-8v-2.489v-2.969v-9.334   C87.166,61.124,85.375,59.333,83.166,59.333z"/>
</g>
</svg>