<svg xmlns="http://www.w3.org/2000/svg" xmlns:xlink="http://www.w3.org/1999/xlink" version="1.1" id="Layer_1" x="0px" y="0px" width="100px" height="100px" viewBox="0 0 100 100" enable-background="new 0 0 100 100" xml:space="preserve">
<path d="M93.488,21.22c0,3.344-2.71,6.054-6.054,6.054H48.872c-3.344,0-6.054-2.71-6.054-6.054l0,0c0-3.343,2.71-6.053,6.054-6.053  h38.562C90.778,15.167,93.488,17.877,93.488,21.22L93.488,21.22z"/>
<path d="M93.488,69.946c0,3.344-2.71,6.054-6.054,6.054H48.872c-3.344,0-6.054-2.71-6.054-6.054l0,0c0-3.344,2.71-6.053,6.054-6.053  h38.562C90.778,63.894,93.488,66.603,93.488,69.946L93.488,69.946z"/>
<path d="M87.435,75.851c-3.344,0-6.054-2.711-6.054-6.054V22.266c0-3.343,2.71-6.053,6.054-6.053l0,0  c3.344,0,6.054,2.71,6.054,6.053v47.531C93.488,73.14,90.778,75.851,87.435,75.851L87.435,75.851z"/>
<path d="M49.62,41.955l-13.501-13.5c-1.88-1.88-4.929-1.88-6.81,0c-1.881,1.881-1.881,4.93,0,6.81l5.271,5.271H11.191  c-2.661,0-4.817,2.156-4.817,4.815c0,2.66,2.156,4.815,4.817,4.815h23.396l-5.275,5.269c-1.882,1.881-1.884,4.929-0.004,6.812  c0.94,0.94,2.174,1.411,3.407,1.411c1.232,0,2.464-0.469,3.403-1.408l13.5-13.482c0.903-0.903,1.411-2.128,1.411-3.405  C51.031,44.083,50.521,42.857,49.62,41.955z"/>
</svg>